<mxfile host="app.diagrams.net" agent="Mozilla/5.0 (Windows NT 10.0; Win64; x64) AppleWebKit/537.36 (KHTML, like Gecko) Chrome/135.0.0.0 Safari/537.36" version="26.2.14">
  <diagram name="Page-1" id="MudPRS1A8s806OBrTVAc">
    <mxGraphModel dx="4316" dy="3283" grid="1" gridSize="10" guides="1" tooltips="1" connect="1" arrows="1" fold="1" page="1" pageScale="1" pageWidth="850" pageHeight="1100" math="0" shadow="0">
      <root>
        <mxCell id="0" />
        <mxCell id="1" parent="0" />
        <mxCell id="R-E-YE2nnD_rp0op8uw5-1" value="" style="shape=umlLifeline;perimeter=lifelinePerimeter;whiteSpace=wrap;html=1;container=1;dropTarget=0;collapsible=0;recursiveResize=0;outlineConnect=0;portConstraint=eastwest;newEdgeStyle={&quot;curved&quot;:0,&quot;rounded&quot;:0};participant=umlActor;" parent="1" vertex="1">
          <mxGeometry x="-830" width="30" height="1720" as="geometry" />
        </mxCell>
        <mxCell id="R-E-YE2nnD_rp0op8uw5-2" value="student-homepage" style="shape=umlLifeline;perimeter=lifelinePerimeter;whiteSpace=wrap;html=1;container=1;dropTarget=0;collapsible=0;recursiveResize=0;outlineConnect=0;portConstraint=eastwest;newEdgeStyle={&quot;curved&quot;:0,&quot;rounded&quot;:0};fontSize=14;fontStyle=1" parent="1" vertex="1">
          <mxGeometry x="-600" width="160" height="1720" as="geometry" />
        </mxCell>
        <mxCell id="R-E-YE2nnD_rp0op8uw5-3" value="" style="html=1;points=[[0,0,0,0,5],[0,1,0,0,-5],[1,0,0,0,5],[1,1,0,0,-5]];perimeter=orthogonalPerimeter;outlineConnect=0;targetShapes=umlLifeline;portConstraint=eastwest;newEdgeStyle={&quot;curved&quot;:0,&quot;rounded&quot;:0};strokeColor=#000000;fillColor=#dae8fc;" parent="R-E-YE2nnD_rp0op8uw5-2" vertex="1">
          <mxGeometry x="75" y="90" width="10" height="70" as="geometry" />
        </mxCell>
        <mxCell id="R-E-YE2nnD_rp0op8uw5-5" value="&lt;font style=&quot;font-size: 13px;&quot;&gt;&lt;i&gt;Selects &quot;Manage my Traineeship Logbook&quot;&lt;/i&gt;&lt;/font&gt;" style="text;html=1;align=center;verticalAlign=middle;resizable=0;points=[];autosize=1;strokeColor=none;fillColor=none;" parent="1" vertex="1">
          <mxGeometry x="-810" y="90" width="270" height="30" as="geometry" />
        </mxCell>
        <mxCell id="R-E-YE2nnD_rp0op8uw5-6" value="" style="endArrow=classic;html=1;rounded=0;" parent="1" source="R-E-YE2nnD_rp0op8uw5-1" target="R-E-YE2nnD_rp0op8uw5-3" edge="1">
          <mxGeometry width="50" height="50" relative="1" as="geometry">
            <mxPoint x="-820.1633333333335" y="120" as="sourcePoint" />
            <mxPoint x="-529.83" y="120" as="targetPoint" />
            <Array as="points">
              <mxPoint x="-670" y="120" />
            </Array>
          </mxGeometry>
        </mxCell>
        <mxCell id="R-E-YE2nnD_rp0op8uw5-8" value="StudentController" style="shape=umlLifeline;perimeter=lifelinePerimeter;whiteSpace=wrap;html=1;container=1;dropTarget=0;collapsible=0;recursiveResize=0;outlineConnect=0;portConstraint=eastwest;newEdgeStyle={&quot;curved&quot;:0,&quot;rounded&quot;:0};fontSize=14;fontStyle=1" parent="1" vertex="1">
          <mxGeometry x="-360" width="160" height="1720" as="geometry" />
        </mxCell>
        <mxCell id="R-E-YE2nnD_rp0op8uw5-12" value="" style="html=1;points=[[0,0,0,0,5],[0,1,0,0,-5],[1,0,0,0,5],[1,1,0,0,-5]];perimeter=orthogonalPerimeter;outlineConnect=0;targetShapes=umlLifeline;portConstraint=eastwest;newEdgeStyle={&quot;curved&quot;:0,&quot;rounded&quot;:0};strokeColor=#000000;fillColor=#dae8fc;" parent="R-E-YE2nnD_rp0op8uw5-8" vertex="1">
          <mxGeometry x="75" y="120" width="10" height="280" as="geometry" />
        </mxCell>
        <mxCell id="R-E-YE2nnD_rp0op8uw5-69" value="" style="html=1;points=[[0,0,0,0,5],[0,1,0,0,-5],[1,0,0,0,5],[1,1,0,0,-5]];perimeter=orthogonalPerimeter;outlineConnect=0;targetShapes=umlLifeline;portConstraint=eastwest;newEdgeStyle={&quot;curved&quot;:0,&quot;rounded&quot;:0};strokeColor=#000000;fillColor=#dae8fc;" parent="R-E-YE2nnD_rp0op8uw5-8" vertex="1">
          <mxGeometry x="75" y="1100" width="10" height="68" as="geometry" />
        </mxCell>
        <mxCell id="R-E-YE2nnD_rp0op8uw5-76" value="" style="html=1;points=[[0,0,0,0,5],[0,1,0,0,-5],[1,0,0,0,5],[1,1,0,0,-5]];perimeter=orthogonalPerimeter;outlineConnect=0;targetShapes=umlLifeline;portConstraint=eastwest;newEdgeStyle={&quot;curved&quot;:0,&quot;rounded&quot;:0};strokeColor=#000000;fillColor=#dae8fc;" parent="R-E-YE2nnD_rp0op8uw5-8" vertex="1">
          <mxGeometry x="75" y="1210" width="10" height="100" as="geometry" />
        </mxCell>
        <mxCell id="R-E-YE2nnD_rp0op8uw5-13" value="" style="endArrow=classic;html=1;rounded=0;" parent="1" source="R-E-YE2nnD_rp0op8uw5-2" target="R-E-YE2nnD_rp0op8uw5-12" edge="1">
          <mxGeometry width="50" height="50" relative="1" as="geometry">
            <mxPoint x="-290" y="310" as="sourcePoint" />
            <mxPoint x="-240" y="260" as="targetPoint" />
            <Array as="points">
              <mxPoint x="-410" y="140" />
            </Array>
          </mxGeometry>
        </mxCell>
        <mxCell id="R-E-YE2nnD_rp0op8uw5-14" value="ViewLogBook()" style="text;html=1;align=center;verticalAlign=middle;resizable=0;points=[];autosize=1;strokeColor=none;fillColor=none;fontSize=13;fontStyle=2" parent="1" vertex="1">
          <mxGeometry x="-450" y="108" width="110" height="30" as="geometry" />
        </mxCell>
        <mxCell id="R-E-YE2nnD_rp0op8uw5-15" value="Student" style="shape=umlLifeline;perimeter=lifelinePerimeter;whiteSpace=wrap;html=1;container=1;dropTarget=0;collapsible=0;recursiveResize=0;outlineConnect=0;portConstraint=eastwest;newEdgeStyle={&quot;curved&quot;:0,&quot;rounded&quot;:0};fontSize=14;fontStyle=1" parent="1" vertex="1">
          <mxGeometry x="-120" width="120" height="1720" as="geometry" />
        </mxCell>
        <mxCell id="R-E-YE2nnD_rp0op8uw5-17" value="" style="html=1;points=[[0,0,0,0,5],[0,1,0,0,-5],[1,0,0,0,5],[1,1,0,0,-5]];perimeter=orthogonalPerimeter;outlineConnect=0;targetShapes=umlLifeline;portConstraint=eastwest;newEdgeStyle={&quot;curved&quot;:0,&quot;rounded&quot;:0};strokeColor=#000000;fillColor=#dae8fc;" parent="R-E-YE2nnD_rp0op8uw5-15" vertex="1">
          <mxGeometry x="55" y="150" width="10" height="70" as="geometry" />
        </mxCell>
        <mxCell id="R-E-YE2nnD_rp0op8uw5-18" value="" style="endArrow=classic;html=1;rounded=0;" parent="1" source="R-E-YE2nnD_rp0op8uw5-12" target="R-E-YE2nnD_rp0op8uw5-15" edge="1">
          <mxGeometry width="50" height="50" relative="1" as="geometry">
            <mxPoint x="-80" y="250" as="sourcePoint" />
            <mxPoint x="-30" y="200" as="targetPoint" />
            <Array as="points">
              <mxPoint x="-160" y="170" />
            </Array>
          </mxGeometry>
        </mxCell>
        <mxCell id="R-E-YE2nnD_rp0op8uw5-20" value="getAssignedTraineeship()" style="text;html=1;align=center;verticalAlign=middle;resizable=0;points=[];autosize=1;strokeColor=none;fillColor=none;fontSize=13;fontStyle=2" parent="1" vertex="1">
          <mxGeometry x="-255" y="138" width="170" height="30" as="geometry" />
        </mxCell>
        <mxCell id="R-E-YE2nnD_rp0op8uw5-21" value="&lt;font style=&quot;font-size: 13px;&quot;&gt;&lt;i&gt;return TraineeshipPosition&lt;/i&gt;&lt;/font&gt;" style="html=1;verticalAlign=bottom;endArrow=open;dashed=1;endSize=8;curved=0;rounded=0;" parent="1" source="R-E-YE2nnD_rp0op8uw5-17" target="R-E-YE2nnD_rp0op8uw5-12" edge="1">
          <mxGeometry x="-0.0339" relative="1" as="geometry">
            <mxPoint x="-60" y="210" as="sourcePoint" />
            <mxPoint x="-270" y="210" as="targetPoint" />
            <Array as="points">
              <mxPoint x="-139" y="210" />
            </Array>
            <mxPoint as="offset" />
          </mxGeometry>
        </mxCell>
        <mxCell id="R-E-YE2nnD_rp0op8uw5-22" value="" style="endArrow=classic;html=1;rounded=0;" parent="1" edge="1">
          <mxGeometry width="50" height="50" relative="1" as="geometry">
            <mxPoint x="-275" y="250" as="sourcePoint" />
            <mxPoint x="195" y="250" as="targetPoint" />
            <Array as="points">
              <mxPoint x="-70" y="250" />
            </Array>
          </mxGeometry>
        </mxCell>
        <mxCell id="R-E-YE2nnD_rp0op8uw5-23" value="ManageMyTraineeshipLogbook" style="shape=umlLifeline;perimeter=lifelinePerimeter;whiteSpace=wrap;html=1;container=1;dropTarget=0;collapsible=0;recursiveResize=0;outlineConnect=0;portConstraint=eastwest;newEdgeStyle={&quot;curved&quot;:0,&quot;rounded&quot;:0};fontSize=14;fontStyle=1" parent="1" vertex="1">
          <mxGeometry x="80" width="240" height="1730" as="geometry" />
        </mxCell>
        <mxCell id="R-E-YE2nnD_rp0op8uw5-25" value="" style="html=1;points=[[0,0,0,0,5],[0,1,0,0,-5],[1,0,0,0,5],[1,1,0,0,-5]];perimeter=orthogonalPerimeter;outlineConnect=0;targetShapes=umlLifeline;portConstraint=eastwest;newEdgeStyle={&quot;curved&quot;:0,&quot;rounded&quot;:0};strokeColor=#000000;fillColor=#dae8fc;" parent="R-E-YE2nnD_rp0op8uw5-23" vertex="1">
          <mxGeometry x="115" y="220" width="10" height="180" as="geometry" />
        </mxCell>
        <mxCell id="R-E-YE2nnD_rp0op8uw5-79" value="" style="html=1;points=[[0,0,0,0,5],[0,1,0,0,-5],[1,0,0,0,5],[1,1,0,0,-5]];perimeter=orthogonalPerimeter;outlineConnect=0;targetShapes=umlLifeline;portConstraint=eastwest;newEdgeStyle={&quot;curved&quot;:0,&quot;rounded&quot;:0};strokeColor=#000000;fillColor=#dae8fc;" parent="R-E-YE2nnD_rp0op8uw5-23" vertex="1">
          <mxGeometry x="115" y="1080" width="10" height="50" as="geometry" />
        </mxCell>
        <mxCell id="R-E-YE2nnD_rp0op8uw5-26" value="&quot;call&quot;" style="text;html=1;align=center;verticalAlign=middle;resizable=0;points=[];autosize=1;strokeColor=none;fillColor=none;" parent="1" vertex="1">
          <mxGeometry x="-210" y="230" width="50" height="30" as="geometry" />
        </mxCell>
        <mxCell id="R-E-YE2nnD_rp0op8uw5-27" value="opt" style="shape=umlFrame;whiteSpace=wrap;html=1;pointerEvents=0;" parent="1" vertex="1">
          <mxGeometry x="-490" y="270" width="830" height="140" as="geometry" />
        </mxCell>
        <mxCell id="R-E-YE2nnD_rp0op8uw5-28" value="Finished Traineeship Position" style="text;html=1;align=center;verticalAlign=middle;resizable=0;points=[];autosize=1;strokeColor=#666666;fillColor=#f5f5f5;fontSize=14;fontStyle=2;fontColor=#333333;" parent="1" vertex="1">
          <mxGeometry x="-160" y="280" width="210" height="30" as="geometry" />
        </mxCell>
        <mxCell id="R-E-YE2nnD_rp0op8uw5-29" value="" style="endArrow=classic;html=1;rounded=0;" parent="1" edge="1">
          <mxGeometry width="50" height="50" relative="1" as="geometry">
            <mxPoint x="-275" y="380" as="sourcePoint" />
            <mxPoint x="195" y="380" as="targetPoint" />
            <Array as="points">
              <mxPoint x="-45" y="380" />
            </Array>
          </mxGeometry>
        </mxCell>
        <mxCell id="R-E-YE2nnD_rp0op8uw5-30" value="&quot;send error message&quot;" style="text;html=1;align=center;verticalAlign=middle;resizable=0;points=[];autosize=1;strokeColor=none;fillColor=none;" parent="1" vertex="1">
          <mxGeometry x="-270" y="350" width="140" height="30" as="geometry" />
        </mxCell>
        <mxCell id="R-E-YE2nnD_rp0op8uw5-31" value="[traineeshipIsFinished = true]" style="text;html=1;align=center;verticalAlign=middle;resizable=0;points=[];autosize=1;strokeColor=none;fillColor=none;fontSize=13;fontStyle=2" parent="1" vertex="1">
          <mxGeometry x="-475" y="300" width="190" height="30" as="geometry" />
        </mxCell>
        <mxCell id="R-E-YE2nnD_rp0op8uw5-32" value="alt" style="shape=umlFrame;whiteSpace=wrap;html=1;pointerEvents=0;" parent="1" vertex="1">
          <mxGeometry x="-500" y="580" width="1610" height="500" as="geometry" />
        </mxCell>
        <mxCell id="R-E-YE2nnD_rp0op8uw5-33" value="Update LogBook" style="text;html=1;align=center;verticalAlign=middle;resizable=0;points=[];autosize=1;strokeColor=#666666;fillColor=#f5f5f5;fontSize=14;fontStyle=2;fontColor=#333333;" parent="1" vertex="1">
          <mxGeometry x="-125" y="600" width="130" height="30" as="geometry" />
        </mxCell>
        <mxCell id="R-E-YE2nnD_rp0op8uw5-34" value="" style="html=1;points=[[0,0,0,0,5],[0,1,0,0,-5],[1,0,0,0,5],[1,1,0,0,-5]];perimeter=orthogonalPerimeter;outlineConnect=0;targetShapes=umlLifeline;portConstraint=eastwest;newEdgeStyle={&quot;curved&quot;:0,&quot;rounded&quot;:0};strokeColor=#000000;fillColor=#dae8fc;" parent="1" vertex="1">
          <mxGeometry x="195" y="640" width="10" height="50" as="geometry" />
        </mxCell>
        <mxCell id="R-E-YE2nnD_rp0op8uw5-35" value="" style="endArrow=classic;html=1;rounded=0;" parent="1" source="R-E-YE2nnD_rp0op8uw5-1" target="R-E-YE2nnD_rp0op8uw5-34" edge="1">
          <mxGeometry width="50" height="50" relative="1" as="geometry">
            <mxPoint x="-750" y="660" as="sourcePoint" />
            <mxPoint x="-459" y="660" as="targetPoint" />
            <Array as="points">
              <mxPoint x="-604" y="660" />
            </Array>
          </mxGeometry>
        </mxCell>
        <mxCell id="R-E-YE2nnD_rp0op8uw5-36" value="Selects &quot;Update logbook&quot;" style="text;html=1;align=center;verticalAlign=middle;resizable=0;points=[];autosize=1;strokeColor=none;fillColor=none;fontSize=13;fontStyle=2" parent="1" vertex="1">
          <mxGeometry x="-785" y="630" width="170" height="30" as="geometry" />
        </mxCell>
        <mxCell id="R-E-YE2nnD_rp0op8uw5-37" value="View Company Details" style="text;html=1;align=center;verticalAlign=middle;resizable=0;points=[];autosize=1;strokeColor=#666666;fillColor=#f5f5f5;fontSize=14;fontStyle=2;fontColor=#333333;" parent="1" vertex="1">
          <mxGeometry x="-140" y="710" width="160" height="30" as="geometry" />
        </mxCell>
        <mxCell id="R-E-YE2nnD_rp0op8uw5-38" value="" style="html=1;points=[[0,0,0,0,5],[0,1,0,0,-5],[1,0,0,0,5],[1,1,0,0,-5]];perimeter=orthogonalPerimeter;outlineConnect=0;targetShapes=umlLifeline;portConstraint=eastwest;newEdgeStyle={&quot;curved&quot;:0,&quot;rounded&quot;:0};strokeColor=#000000;fillColor=#dae8fc;" parent="1" vertex="1">
          <mxGeometry x="195" y="760" width="10" height="50" as="geometry" />
        </mxCell>
        <mxCell id="R-E-YE2nnD_rp0op8uw5-39" value="" style="endArrow=classic;html=1;rounded=0;" parent="1" edge="1">
          <mxGeometry width="50" height="50" relative="1" as="geometry">
            <mxPoint x="-816" y="770" as="sourcePoint" />
            <mxPoint x="195" y="770" as="targetPoint" />
            <Array as="points">
              <mxPoint x="-604" y="770" />
            </Array>
          </mxGeometry>
        </mxCell>
        <mxCell id="R-E-YE2nnD_rp0op8uw5-40" value="Selects to see the Company details&amp;nbsp;&amp;nbsp;" style="text;html=1;align=center;verticalAlign=middle;resizable=0;points=[];autosize=1;strokeColor=none;fillColor=none;fontSize=13;fontStyle=2" parent="1" vertex="1">
          <mxGeometry x="-790" y="730" width="230" height="30" as="geometry" />
        </mxCell>
        <mxCell id="R-E-YE2nnD_rp0op8uw5-44" value="showCompanyDetails()" style="text;html=1;align=center;verticalAlign=middle;resizable=0;points=[];autosize=1;strokeColor=none;fillColor=none;fontSize=13;fontStyle=2" parent="1" vertex="1">
          <mxGeometry x="255" y="760" width="160" height="30" as="geometry" />
        </mxCell>
        <mxCell id="R-E-YE2nnD_rp0op8uw5-45" value="InformationsController" style="shape=umlLifeline;perimeter=lifelinePerimeter;whiteSpace=wrap;html=1;container=1;dropTarget=0;collapsible=0;recursiveResize=0;outlineConnect=0;portConstraint=eastwest;newEdgeStyle={&quot;curved&quot;:0,&quot;rounded&quot;:0};fontSize=14;fontStyle=1" parent="1" vertex="1">
          <mxGeometry x="400" width="190" height="1720" as="geometry" />
        </mxCell>
        <mxCell id="R-E-YE2nnD_rp0op8uw5-47" value="" style="html=1;points=[[0,0,0,0,5],[0,1,0,0,-5],[1,0,0,0,5],[1,1,0,0,-5]];perimeter=orthogonalPerimeter;outlineConnect=0;targetShapes=umlLifeline;portConstraint=eastwest;newEdgeStyle={&quot;curved&quot;:0,&quot;rounded&quot;:0};strokeColor=#000000;fillColor=#dae8fc;" parent="R-E-YE2nnD_rp0op8uw5-45" vertex="1">
          <mxGeometry x="90" y="770" width="10" height="50" as="geometry" />
        </mxCell>
        <mxCell id="R-E-YE2nnD_rp0op8uw5-59" value="" style="html=1;points=[[0,0,0,0,5],[0,1,0,0,-5],[1,0,0,0,5],[1,1,0,0,-5]];perimeter=orthogonalPerimeter;outlineConnect=0;targetShapes=umlLifeline;portConstraint=eastwest;newEdgeStyle={&quot;curved&quot;:0,&quot;rounded&quot;:0};strokeColor=#000000;fillColor=#dae8fc;" parent="R-E-YE2nnD_rp0op8uw5-45" vertex="1">
          <mxGeometry x="90" y="940" width="10" height="70" as="geometry" />
        </mxCell>
        <mxCell id="R-E-YE2nnD_rp0op8uw5-46" value="" style="endArrow=classic;html=1;rounded=0;exitX=0;exitY=1;exitDx=0;exitDy=-5;exitPerimeter=0;" parent="1" edge="1">
          <mxGeometry width="50" height="50" relative="1" as="geometry">
            <mxPoint x="195" y="794.75" as="sourcePoint" />
            <mxPoint x="490" y="794.75" as="targetPoint" />
          </mxGeometry>
        </mxCell>
        <mxCell id="R-E-YE2nnD_rp0op8uw5-48" value="company-details" style="shape=umlLifeline;perimeter=lifelinePerimeter;whiteSpace=wrap;html=1;container=1;dropTarget=0;collapsible=0;recursiveResize=0;outlineConnect=0;portConstraint=eastwest;newEdgeStyle={&quot;curved&quot;:0,&quot;rounded&quot;:0};fontSize=14;fontStyle=1" parent="1" vertex="1">
          <mxGeometry x="680" width="190" height="1720" as="geometry" />
        </mxCell>
        <mxCell id="R-E-YE2nnD_rp0op8uw5-49" value="" style="html=1;points=[[0,0,0,0,5],[0,1,0,0,-5],[1,0,0,0,5],[1,1,0,0,-5]];perimeter=orthogonalPerimeter;outlineConnect=0;targetShapes=umlLifeline;portConstraint=eastwest;newEdgeStyle={&quot;curved&quot;:0,&quot;rounded&quot;:0};strokeColor=#000000;fillColor=#dae8fc;" parent="R-E-YE2nnD_rp0op8uw5-48" vertex="1">
          <mxGeometry x="90" y="790" width="10" height="100" as="geometry" />
        </mxCell>
        <mxCell id="R-E-YE2nnD_rp0op8uw5-50" value="" style="endArrow=classic;html=1;rounded=0;" parent="1" edge="1">
          <mxGeometry width="50" height="50" relative="1" as="geometry">
            <mxPoint x="500" y="810" as="sourcePoint" />
            <mxPoint x="774.5" y="810" as="targetPoint" />
          </mxGeometry>
        </mxCell>
        <mxCell id="R-E-YE2nnD_rp0op8uw5-51" value="Read the company details &amp;amp;&lt;div&gt;click &quot;Back&quot;&amp;nbsp;&lt;/div&gt;" style="text;html=1;align=center;verticalAlign=middle;resizable=0;points=[];autosize=1;strokeColor=none;fillColor=none;fontSize=13;fontStyle=2" parent="1" vertex="1">
          <mxGeometry x="-800" y="810" width="190" height="40" as="geometry" />
        </mxCell>
        <mxCell id="R-E-YE2nnD_rp0op8uw5-52" value="" style="endArrow=classic;html=1;rounded=0;" parent="1" source="R-E-YE2nnD_rp0op8uw5-1" target="R-E-YE2nnD_rp0op8uw5-49" edge="1">
          <mxGeometry width="50" height="50" relative="1" as="geometry">
            <mxPoint x="-829.9995652173913" y="849.47" as="sourcePoint" />
            <mxPoint x="759.87" y="849.47" as="targetPoint" />
            <Array as="points">
              <mxPoint x="-608.63" y="849.47" />
            </Array>
          </mxGeometry>
        </mxCell>
        <mxCell id="R-E-YE2nnD_rp0op8uw5-53" value="" style="html=1;points=[[0,0,0,0,5],[0,1,0,0,-5],[1,0,0,0,5],[1,1,0,0,-5]];perimeter=orthogonalPerimeter;outlineConnect=0;targetShapes=umlLifeline;portConstraint=eastwest;newEdgeStyle={&quot;curved&quot;:0,&quot;rounded&quot;:0};strokeColor=#000000;fillColor=#dae8fc;" parent="1" vertex="1">
          <mxGeometry x="195" y="930" width="10" height="50" as="geometry" />
        </mxCell>
        <mxCell id="R-E-YE2nnD_rp0op8uw5-54" value="View Professor Details" style="text;html=1;align=center;verticalAlign=middle;resizable=0;points=[];autosize=1;strokeColor=#666666;fillColor=#f5f5f5;fontSize=14;fontStyle=2;fontColor=#333333;" parent="1" vertex="1">
          <mxGeometry x="-135" y="880" width="160" height="30" as="geometry" />
        </mxCell>
        <mxCell id="R-E-YE2nnD_rp0op8uw5-55" value="" style="endArrow=classic;html=1;rounded=0;" parent="1" source="R-E-YE2nnD_rp0op8uw5-1" target="R-E-YE2nnD_rp0op8uw5-53" edge="1">
          <mxGeometry width="50" height="50" relative="1" as="geometry">
            <mxPoint x="-810" y="954.5" as="sourcePoint" />
            <mxPoint x="201" y="954.5" as="targetPoint" />
            <Array as="points">
              <mxPoint x="-598" y="954.5" />
            </Array>
          </mxGeometry>
        </mxCell>
        <mxCell id="R-E-YE2nnD_rp0op8uw5-56" value="Selects to see the Supervisor details&amp;nbsp;&amp;nbsp;" style="text;html=1;align=center;verticalAlign=middle;resizable=0;points=[];autosize=1;strokeColor=none;fillColor=none;fontSize=13;fontStyle=2" parent="1" vertex="1">
          <mxGeometry x="-805" y="920" width="240" height="30" as="geometry" />
        </mxCell>
        <mxCell id="R-E-YE2nnD_rp0op8uw5-57" value="Read the Supervisor details &amp;amp;&lt;div&gt;click &quot;Back&quot;&amp;nbsp;&lt;/div&gt;" style="text;html=1;align=center;verticalAlign=middle;resizable=0;points=[];autosize=1;strokeColor=none;fillColor=none;fontSize=13;fontStyle=2" parent="1" vertex="1">
          <mxGeometry x="-805" y="990" width="200" height="40" as="geometry" />
        </mxCell>
        <mxCell id="R-E-YE2nnD_rp0op8uw5-58" value="" style="endArrow=classic;html=1;rounded=0;" parent="1" edge="1">
          <mxGeometry width="50" height="50" relative="1" as="geometry">
            <mxPoint x="-810" y="1040" as="sourcePoint" />
            <mxPoint x="1009.9999999999995" y="1040.4700000000003" as="targetPoint" />
            <Array as="points">
              <mxPoint x="-602.63" y="1040.47" />
            </Array>
          </mxGeometry>
        </mxCell>
        <mxCell id="R-E-YE2nnD_rp0op8uw5-60" value="" style="endArrow=classic;html=1;rounded=0;exitX=0;exitY=1;exitDx=0;exitDy=-5;exitPerimeter=0;" parent="1" edge="1">
          <mxGeometry width="50" height="50" relative="1" as="geometry">
            <mxPoint x="195" y="970" as="sourcePoint" />
            <mxPoint x="490" y="970" as="targetPoint" />
          </mxGeometry>
        </mxCell>
        <mxCell id="R-E-YE2nnD_rp0op8uw5-61" value="showProfessorDetails()" style="text;html=1;align=center;verticalAlign=middle;resizable=0;points=[];autosize=1;strokeColor=none;fillColor=none;fontSize=13;fontStyle=2" parent="1" vertex="1">
          <mxGeometry x="255" y="940" width="160" height="30" as="geometry" />
        </mxCell>
        <mxCell id="R-E-YE2nnD_rp0op8uw5-62" value="&quot;call&quot;" style="text;html=1;align=center;verticalAlign=middle;resizable=0;points=[];autosize=1;strokeColor=none;fillColor=none;" parent="1" vertex="1">
          <mxGeometry x="545" y="778" width="50" height="30" as="geometry" />
        </mxCell>
        <mxCell id="R-E-YE2nnD_rp0op8uw5-63" value="professor-details" style="shape=umlLifeline;perimeter=lifelinePerimeter;whiteSpace=wrap;html=1;container=1;dropTarget=0;collapsible=0;recursiveResize=0;outlineConnect=0;portConstraint=eastwest;newEdgeStyle={&quot;curved&quot;:0,&quot;rounded&quot;:0};fontSize=14;fontStyle=1" parent="1" vertex="1">
          <mxGeometry x="920" width="190" height="1730" as="geometry" />
        </mxCell>
        <mxCell id="R-E-YE2nnD_rp0op8uw5-64" value="" style="html=1;points=[[0,0,0,0,5],[0,1,0,0,-5],[1,0,0,0,5],[1,1,0,0,-5]];perimeter=orthogonalPerimeter;outlineConnect=0;targetShapes=umlLifeline;portConstraint=eastwest;newEdgeStyle={&quot;curved&quot;:0,&quot;rounded&quot;:0};strokeColor=#000000;fillColor=#dae8fc;" parent="R-E-YE2nnD_rp0op8uw5-63" vertex="1">
          <mxGeometry x="90" y="960" width="10" height="100" as="geometry" />
        </mxCell>
        <mxCell id="R-E-YE2nnD_rp0op8uw5-65" value="" style="endArrow=classic;html=1;rounded=0;" parent="1" edge="1">
          <mxGeometry width="50" height="50" relative="1" as="geometry">
            <mxPoint x="499.99999999999955" y="990" as="sourcePoint" />
            <mxPoint x="1014.5" y="990" as="targetPoint" />
          </mxGeometry>
        </mxCell>
        <mxCell id="R-E-YE2nnD_rp0op8uw5-66" value="update-logbook" style="shape=umlLifeline;perimeter=lifelinePerimeter;whiteSpace=wrap;html=1;container=1;dropTarget=0;collapsible=0;recursiveResize=0;outlineConnect=0;portConstraint=eastwest;newEdgeStyle={&quot;curved&quot;:0,&quot;rounded&quot;:0};fontSize=14;fontStyle=1" parent="1" vertex="1">
          <mxGeometry x="1160" width="140" height="1720" as="geometry" />
        </mxCell>
        <mxCell id="R-E-YE2nnD_rp0op8uw5-70" value="" style="html=1;points=[[0,0,0,0,5],[0,1,0,0,-5],[1,0,0,0,5],[1,1,0,0,-5]];perimeter=orthogonalPerimeter;outlineConnect=0;targetShapes=umlLifeline;portConstraint=eastwest;newEdgeStyle={&quot;curved&quot;:0,&quot;rounded&quot;:0};strokeColor=#000000;fillColor=#dae8fc;" parent="R-E-YE2nnD_rp0op8uw5-66" vertex="1">
          <mxGeometry x="65" y="1110" width="10" height="130" as="geometry" />
        </mxCell>
        <mxCell id="R-E-YE2nnD_rp0op8uw5-71" value="&quot;call&quot;" style="text;html=1;align=center;verticalAlign=middle;resizable=0;points=[];autosize=1;strokeColor=none;fillColor=none;fontSize=13;fontStyle=2" parent="1" vertex="1">
          <mxGeometry x="575" y="958" width="50" height="30" as="geometry" />
        </mxCell>
        <mxCell id="R-E-YE2nnD_rp0op8uw5-72" value="" style="endArrow=classic;html=1;rounded=0;" parent="1" edge="1">
          <mxGeometry width="50" height="50" relative="1" as="geometry">
            <mxPoint x="-275" y="1150" as="sourcePoint" />
            <mxPoint x="1225" y="1150" as="targetPoint" />
          </mxGeometry>
        </mxCell>
        <mxCell id="R-E-YE2nnD_rp0op8uw5-73" value="&quot;call&quot;" style="text;html=1;align=center;verticalAlign=middle;resizable=0;points=[];autosize=1;strokeColor=none;fillColor=none;fontSize=13;fontStyle=2" parent="1" vertex="1">
          <mxGeometry x="-240" y="1118" width="50" height="30" as="geometry" />
        </mxCell>
        <mxCell id="R-E-YE2nnD_rp0op8uw5-74" value="" style="endArrow=classic;html=1;rounded=0;" parent="1" source="R-E-YE2nnD_rp0op8uw5-1" edge="1">
          <mxGeometry width="50" height="50" relative="1" as="geometry">
            <mxPoint x="-804.9999999999998" y="1180.0000000000002" as="sourcePoint" />
            <mxPoint x="1230" y="1180" as="targetPoint" />
            <Array as="points">
              <mxPoint x="-586.88" y="1180" />
            </Array>
          </mxGeometry>
        </mxCell>
        <mxCell id="R-E-YE2nnD_rp0op8uw5-75" value="fill in logbook &amp;amp; click &quot;Update&quot;" style="text;html=1;align=center;verticalAlign=middle;resizable=0;points=[];autosize=1;strokeColor=none;fillColor=none;fontSize=13;fontStyle=2" parent="1" vertex="1">
          <mxGeometry x="-770" y="1148" width="190" height="30" as="geometry" />
        </mxCell>
        <mxCell id="R-E-YE2nnD_rp0op8uw5-77" value="" style="endArrow=classic;html=1;rounded=0;" parent="1" target="R-E-YE2nnD_rp0op8uw5-8" edge="1">
          <mxGeometry width="50" height="50" relative="1" as="geometry">
            <mxPoint x="1229.5" y="1220" as="sourcePoint" />
            <mxPoint x="205" y="1220" as="targetPoint" />
          </mxGeometry>
        </mxCell>
        <mxCell id="R-E-YE2nnD_rp0op8uw5-78" value="saveLogbook()" style="text;html=1;align=center;verticalAlign=middle;resizable=0;points=[];autosize=1;strokeColor=none;fillColor=none;" parent="1" vertex="1">
          <mxGeometry x="1070" y="1188" width="100" height="30" as="geometry" />
        </mxCell>
        <mxCell id="R-E-YE2nnD_rp0op8uw5-80" value="" style="endArrow=classic;html=1;rounded=0;" parent="1" edge="1">
          <mxGeometry width="50" height="50" relative="1" as="geometry">
            <mxPoint x="195" y="1118" as="sourcePoint" />
            <mxPoint x="-279.5" y="1118" as="targetPoint" />
          </mxGeometry>
        </mxCell>
        <mxCell id="R-E-YE2nnD_rp0op8uw5-81" value="showLogbookForm()" style="text;html=1;align=center;verticalAlign=middle;resizable=0;points=[];autosize=1;strokeColor=none;fillColor=none;fontSize=13;fontStyle=2" parent="1" vertex="1">
          <mxGeometry y="1088" width="140" height="30" as="geometry" />
        </mxCell>
        <mxCell id="R-E-YE2nnD_rp0op8uw5-82" value="StudentService" style="shape=umlLifeline;perimeter=lifelinePerimeter;whiteSpace=wrap;html=1;container=1;dropTarget=0;collapsible=0;recursiveResize=0;outlineConnect=0;portConstraint=eastwest;newEdgeStyle={&quot;curved&quot;:0,&quot;rounded&quot;:0};fontSize=14;fontStyle=1" parent="1" vertex="1">
          <mxGeometry x="1340" width="160" height="1720" as="geometry" />
        </mxCell>
        <mxCell id="R-E-YE2nnD_rp0op8uw5-84" value="" style="html=1;points=[[0,0,0,0,5],[0,1,0,0,-5],[1,0,0,0,5],[1,1,0,0,-5]];perimeter=orthogonalPerimeter;outlineConnect=0;targetShapes=umlLifeline;portConstraint=eastwest;newEdgeStyle={&quot;curved&quot;:0,&quot;rounded&quot;:0};strokeColor=#000000;fillColor=#dae8fc;" parent="R-E-YE2nnD_rp0op8uw5-82" vertex="1">
          <mxGeometry x="75" y="1218" width="10" height="102" as="geometry" />
        </mxCell>
        <mxCell id="R-E-YE2nnD_rp0op8uw5-85" value="" style="endArrow=classic;html=1;rounded=0;" parent="1" source="R-E-YE2nnD_rp0op8uw5-76" target="R-E-YE2nnD_rp0op8uw5-84" edge="1">
          <mxGeometry width="50" height="50" relative="1" as="geometry">
            <mxPoint x="430" y="1280" as="sourcePoint" />
            <mxPoint x="480" y="1230" as="targetPoint" />
          </mxGeometry>
        </mxCell>
        <mxCell id="R-E-YE2nnD_rp0op8uw5-86" value="updateStudentLogbook()" style="text;html=1;align=center;verticalAlign=middle;resizable=0;points=[];autosize=1;strokeColor=none;fillColor=none;fontSize=13;fontStyle=2" parent="1" vertex="1">
          <mxGeometry x="-255" y="1228" width="170" height="30" as="geometry" />
        </mxCell>
        <mxCell id="R-E-YE2nnD_rp0op8uw5-87" value="TraineeshipDAORepository" style="shape=umlLifeline;perimeter=lifelinePerimeter;whiteSpace=wrap;html=1;container=1;dropTarget=0;collapsible=0;recursiveResize=0;outlineConnect=0;portConstraint=eastwest;newEdgeStyle={&quot;curved&quot;:0,&quot;rounded&quot;:0};fontSize=14;fontStyle=1" parent="1" vertex="1">
          <mxGeometry x="1890" width="240" height="1720" as="geometry" />
        </mxCell>
        <mxCell id="R-E-YE2nnD_rp0op8uw5-96" value="" style="html=1;points=[[0,0,0,0,5],[0,1,0,0,-5],[1,0,0,0,5],[1,1,0,0,-5]];perimeter=orthogonalPerimeter;outlineConnect=0;targetShapes=umlLifeline;portConstraint=eastwest;newEdgeStyle={&quot;curved&quot;:0,&quot;rounded&quot;:0};strokeColor=#000000;fillColor=#dae8fc;" parent="R-E-YE2nnD_rp0op8uw5-87" vertex="1">
          <mxGeometry x="115" y="1300" width="10" height="92" as="geometry" />
        </mxCell>
        <mxCell id="R-E-YE2nnD_rp0op8uw5-89" value="TraineeshipPosition" style="shape=umlLifeline;perimeter=lifelinePerimeter;whiteSpace=wrap;html=1;container=1;dropTarget=0;collapsible=0;recursiveResize=0;outlineConnect=0;portConstraint=eastwest;newEdgeStyle={&quot;curved&quot;:0,&quot;rounded&quot;:0};fontSize=14;fontStyle=1" parent="1" vertex="1">
          <mxGeometry x="1590" width="240" height="1720" as="geometry" />
        </mxCell>
        <mxCell id="R-E-YE2nnD_rp0op8uw5-91" value="" style="html=1;points=[[0,0,0,0,5],[0,1,0,0,-5],[1,0,0,0,5],[1,1,0,0,-5]];perimeter=orthogonalPerimeter;outlineConnect=0;targetShapes=umlLifeline;portConstraint=eastwest;newEdgeStyle={&quot;curved&quot;:0,&quot;rounded&quot;:0};strokeColor=#000000;fillColor=#dae8fc;" parent="R-E-YE2nnD_rp0op8uw5-89" vertex="1">
          <mxGeometry x="115" y="1258" width="10" height="92" as="geometry" />
        </mxCell>
        <mxCell id="R-E-YE2nnD_rp0op8uw5-92" value="" style="endArrow=classic;html=1;rounded=0;exitX=1;exitY=1;exitDx=0;exitDy=-5;exitPerimeter=0;" parent="1" edge="1">
          <mxGeometry width="50" height="50" relative="1" as="geometry">
            <mxPoint x="1425" y="1300.0000000000005" as="sourcePoint" />
            <mxPoint x="1709.5" y="1300.0000000000005" as="targetPoint" />
          </mxGeometry>
        </mxCell>
        <mxCell id="R-E-YE2nnD_rp0op8uw5-93" value="setStudentLogbook()" style="text;html=1;align=center;verticalAlign=middle;resizable=0;points=[];autosize=1;strokeColor=none;fillColor=none;fontSize=13;fontStyle=2" parent="1" vertex="1">
          <mxGeometry x="1490" y="1270" width="140" height="30" as="geometry" />
        </mxCell>
        <mxCell id="R-E-YE2nnD_rp0op8uw5-94" value="Database (MySQL)" style="shape=umlLifeline;perimeter=lifelinePerimeter;whiteSpace=wrap;html=1;container=1;dropTarget=0;collapsible=0;recursiveResize=0;outlineConnect=0;portConstraint=eastwest;newEdgeStyle={&quot;curved&quot;:0,&quot;rounded&quot;:0};fontSize=14;fontStyle=1" parent="1" vertex="1">
          <mxGeometry x="2200" width="100" height="1720" as="geometry" />
        </mxCell>
        <mxCell id="R-E-YE2nnD_rp0op8uw5-95" value="" style="html=1;points=[[0,0,0,0,5],[0,1,0,0,-5],[1,0,0,0,5],[1,1,0,0,-5]];perimeter=orthogonalPerimeter;outlineConnect=0;targetShapes=umlLifeline;portConstraint=eastwest;newEdgeStyle={&quot;curved&quot;:0,&quot;rounded&quot;:0};strokeColor=#000000;fillColor=#dae8fc;" parent="R-E-YE2nnD_rp0op8uw5-94" vertex="1">
          <mxGeometry x="45" y="1340" width="10" height="100" as="geometry" />
        </mxCell>
        <mxCell id="R-E-YE2nnD_rp0op8uw5-97" value="" style="endArrow=classic;html=1;rounded=0;exitX=1;exitY=1;exitDx=0;exitDy=-5;exitPerimeter=0;" parent="1" target="R-E-YE2nnD_rp0op8uw5-87" edge="1">
          <mxGeometry width="50" height="50" relative="1" as="geometry">
            <mxPoint x="1715" y="1330.0000000000005" as="sourcePoint" />
            <mxPoint x="1950" y="1330" as="targetPoint" />
          </mxGeometry>
        </mxCell>
        <mxCell id="R-E-YE2nnD_rp0op8uw5-98" value="save()" style="text;html=1;align=center;verticalAlign=middle;resizable=0;points=[];autosize=1;strokeColor=none;fillColor=none;fontSize=13;fontStyle=2" parent="1" vertex="1">
          <mxGeometry x="1750" y="1298" width="60" height="30" as="geometry" />
        </mxCell>
        <mxCell id="R-E-YE2nnD_rp0op8uw5-99" value="&quot;create Logbook&quot;" style="html=1;verticalAlign=bottom;endArrow=open;dashed=1;endSize=8;curved=0;rounded=0;fontSize=13;fontStyle=2" parent="1" target="R-E-YE2nnD_rp0op8uw5-94" edge="1">
          <mxGeometry relative="1" as="geometry">
            <mxPoint x="2015" y="1370" as="sourcePoint" />
            <mxPoint x="2285" y="1370" as="targetPoint" />
          </mxGeometry>
        </mxCell>
        <mxCell id="NdEmS44pBf09J3bjPb52-1" value="Student" style="text;html=1;align=center;verticalAlign=middle;resizable=0;points=[];autosize=1;strokeColor=none;fillColor=none;fontSize=14;fontStyle=1" parent="1" vertex="1">
          <mxGeometry x="-850" y="-32" width="70" height="30" as="geometry" />
        </mxCell>
      </root>
    </mxGraphModel>
  </diagram>
</mxfile>
